<?xml version="1.0" standalone="no"?>
<!DOCTYPE svg PUBLIC "-//W3C//DTD SVG 20010904//EN"
 "http://www.w3.org/TR/2001/REC-SVG-20010904/DTD/svg10.dtd">
<svg version="1.0" xmlns="http://www.w3.org/2000/svg"
 width="328.000000pt" height="113.000000pt" viewBox="0 0 328.000000 113.000000"
 preserveAspectRatio="xMidYMid meet">

<g transform="translate(0.000000,113.000000) scale(0.100000,-0.100000)"
fill="#000000" stroke="none">
<path d="M526 1079 c-3 -8 -12 -63 -21 -124 -8 -60 -20 -138 -25 -172 -14 -88
-27 -175 -40 -268 -7 -44 -16 -104 -21 -132 l-10 -52 -142 -3 c-187 -4 -188
-21 -2 -28 132 -5 140 -6 140 -25 0 -18 -8 -20 -98 -25 -122 -6 -133 -24 -17
-28 47 -1 90 -4 96 -6 8 -3 7 -29 -2 -93 -16 -106 -16 -103 -5 -103 8 0 17 40
36 163 6 37 6 37 55 37 38 0 50 4 50 15 0 11 -12 15 -44 15 -45 0 -71 24 -44
42 7 4 192 8 411 8 346 0 397 2 397 15 0 13 -51 15 -401 15 l-400 0 6 48 c6
46 14 100 75 502 18 121 26 198 20 204 -6 6 -11 4 -14 -5z"/>
<path d="M2455 1081 c-16 -5 -63 -9 -103 -10 l-73 -1 -89 -187 c-152 -319
-178 -369 -183 -353 -3 8 -22 123 -42 255 -20 132 -39 250 -42 263 -5 20 -10
22 -85 22 l-79 0 -38 -82 c-21 -46 -60 -128 -86 -183 -26 -55 -67 -142 -91
-194 -25 -52 -47 -92 -50 -89 -3 3 -23 118 -45 254 -21 137 -42 259 -44 272
-5 21 -10 22 -113 22 l-108 0 -38 -237 c-45 -286 -45 -288 -59 -274 -6 6 -67
122 -136 258 l-127 248 -82 3 c-61 2 -83 -1 -86 -10 -2 -7 -25 -150 -51 -318
-25 -168 -49 -313 -51 -323 -5 -16 1 -18 57 -15 l63 3 8 35 c4 19 21 130 39
245 17 116 35 216 39 224 7 14 57 -74 206 -369 l69 -135 82 -3 c71 -2 82 -1
86 15 3 10 22 126 43 258 20 132 40 243 44 248 5 6 45 -195 91 -460 l11 -63
82 0 82 0 129 271 c72 149 133 273 136 275 3 2 26 -119 51 -269 l45 -272 79
-3 79 -3 100 194 99 194 43 -28 c26 -16 90 -38 156 -54 168 -42 207 -65 207
-125 0 -41 -25 -71 -75 -90 -39 -15 -149 -15 -204 0 -44 12 -131 82 -131 106
0 25 -22 25 -61 0 l-39 -26 19 -38 c81 -156 368 -202 543 -87 75 50 102 166
55 236 -32 47 -83 72 -222 108 -128 33 -164 52 -179 94 -32 88 160 149 274 87
24 -14 54 -39 66 -57 l21 -32 37 25 c20 14 36 28 36 33 0 4 -13 26 -29 48 -44
61 -120 94 -223 99 -46 1 -96 -1 -113 -5z"/>
</g>
</svg>
