<?xml version="1.0" standalone="no"?>
<!DOCTYPE svg PUBLIC "-//W3C//DTD SVG 20010904//EN"
 "http://www.w3.org/TR/2001/REC-SVG-20010904/DTD/svg10.dtd">
<svg version="1.0" xmlns="http://www.w3.org/2000/svg"
 width="330.000000pt" height="116.000000pt" viewBox="0 0 330.000000 116.000000"
 preserveAspectRatio="xMidYMid meet">

<g transform="translate(0.000000,116.000000) scale(0.100000,-0.100000)"
fill="#000000" stroke="none">
<path d="M60 1023 c-11 -14 -19 -30 -18 -34 6 -16 217 -194 327 -277 320 -238
638 -396 991 -491 302 -82 690 -93 998 -30 245 49 543 163 705 268 20 13 40
22 43 19 2 -3 -34 -85 -81 -183 -47 -98 -84 -179 -83 -180 2 -1 18 -10 36 -19
l33 -17 105 218 c58 120 119 246 134 280 l29 63 -332 -2 -332 -3 -3 -37 -3
-38 228 -2 228 -3 -80 -45 c-257 -145 -548 -237 -855 -271 -141 -16 -404 -6
-555 20 -493 86 -965 328 -1407 723 -42 37 -79 68 -81 68 -3 0 -15 -12 -27
-27z"/>
</g>
</svg>
